<?xml version="1.0" encoding="UTF-8" standalone="no"?>
<svg width="443px" height="95px" viewBox="0 0 443 95" version="1.1" xmlns="http://www.w3.org/2000/svg" xmlns:xlink="http://www.w3.org/1999/xlink" xmlns:sketch="http://www.bohemiancoding.com/sketch/ns">
    <!-- Generator: Sketch 3.0.3 (7891) - http://www.bohemiancoding.com/sketch -->
    <title>primary mark</title>
    <desc>Created with Sketch.</desc>
    <defs></defs>
    <g id="Page-1" stroke="none" stroke-width="1" fill="none" fill-rule="evenodd" sketch:type="MSPage">
        <g id="branding-full.pdf" sketch:type="MSArtboardGroup" transform="translate(-91.000000, -102.000000)">
            <g id="light" sketch:type="MSLayerGroup">
                <g id="primary-mark" transform="translate(91.000000, 103.000000)" sketch:type="MSShapeGroup">
                    <path d="M162.084,84.442 L162.084,92.977 L155.381,92.977 L155.381,67.204 L166.049,67.204 C167.685,67.204 169.031,67.409 170.089,67.817 C171.146,68.227 172.103,68.91 172.959,69.866 C174.318,71.402 174.998,73.347 174.998,75.7 C174.998,78.029 174.45,79.955 173.355,81.478 C172.625,82.485 171.688,83.231 170.542,83.716 C169.397,84.2 167.975,84.442 166.275,84.442 L162.084,84.442 L162.084,84.442 Z M162.084,79.023 L164.311,79.023 C165.092,79.023 165.711,78.951 166.171,78.807 C166.631,78.662 167.005,78.419 167.295,78.079 C167.785,77.513 168.031,76.745 168.031,75.776 C168.031,75.349 167.952,74.924 167.795,74.502 C167.637,74.08 167.433,73.737 167.182,73.473 C166.627,72.906 165.677,72.623 164.33,72.623 L162.084,72.623 L162.084,79.023 L162.084,79.023 Z M193.811,82.403 L201.911,92.977 L193.565,92.977 L187.184,83.083 L187.184,92.977 L180.482,92.977 L180.482,67.204 L190.903,67.204 C192.489,67.204 193.82,67.421 194.897,67.855 C195.973,68.29 196.895,68.985 197.662,69.942 C198.229,70.647 198.666,71.452 198.975,72.358 C199.283,73.265 199.438,74.19 199.438,75.134 C199.438,76.191 199.255,77.208 198.891,78.184 C198.525,79.159 198.027,79.962 197.398,80.591 C196.933,81.057 196.43,81.428 195.889,81.705 C195.347,81.981 194.654,82.215 193.811,82.403 L193.811,82.403 Z M187.184,78.722 L188.43,78.722 C189.84,78.722 190.854,78.428 191.47,77.84 C191.76,77.565 191.998,77.207 192.187,76.769 C192.376,76.332 192.471,75.912 192.471,75.512 C192.471,75.111 192.379,74.695 192.197,74.264 C192.014,73.832 191.771,73.478 191.47,73.203 C190.854,72.615 189.84,72.321 188.43,72.321 L187.184,72.321 L187.184,78.722 L187.184,78.722 Z M219.761,66.43 C221.926,66.43 223.949,66.823 225.831,67.61 C227.713,68.396 229.283,69.508 230.542,70.942 C231.624,72.164 232.477,73.602 233.1,75.257 C233.723,76.912 234.035,78.552 234.035,80.176 C234.035,81.787 233.723,83.42 233.1,85.075 C232.477,86.73 231.624,88.168 230.542,89.39 C229.283,90.824 227.713,91.935 225.831,92.722 C223.949,93.508 221.926,93.901 219.761,93.901 C217.608,93.901 215.588,93.505 213.7,92.712 C211.813,91.919 210.244,90.811 208.998,89.39 C207.916,88.168 207.064,86.73 206.44,85.075 C205.817,83.42 205.506,81.787 205.506,80.176 C205.506,78.564 205.823,76.918 206.459,75.238 C207.095,73.558 207.936,72.126 208.98,70.942 C210.251,69.508 211.831,68.396 213.719,67.61 C215.607,66.823 217.621,66.43 219.761,66.43 L219.761,66.43 Z M219.761,72.944 C218.678,72.944 217.658,73.164 216.702,73.604 C215.746,74.046 214.914,74.675 214.21,75.493 C213.656,76.147 213.229,76.881 212.926,77.692 C212.624,78.504 212.473,79.332 212.473,80.176 C212.473,81.006 212.624,81.827 212.926,82.64 C213.229,83.451 213.656,84.185 214.21,84.839 C214.902,85.657 215.73,86.286 216.693,86.727 C217.656,87.168 218.678,87.388 219.761,87.388 C220.844,87.388 221.866,87.168 222.829,86.727 C223.792,86.286 224.625,85.663 225.33,84.857 C226.488,83.498 227.068,81.937 227.068,80.176 C227.068,79.307 226.916,78.464 226.615,77.645 C226.312,76.827 225.885,76.103 225.33,75.474 C224.625,74.669 223.789,74.046 222.819,73.604 C221.85,73.164 220.83,72.944 219.761,72.944 L219.761,72.944 Z M240.217,92.977 L240.217,67.204 L250.11,67.204 C251.508,67.204 252.867,67.437 254.188,67.902 C255.51,68.368 256.725,69.048 257.832,69.942 C259.381,71.163 260.599,72.677 261.485,74.482 C262.373,76.289 262.817,78.155 262.817,80.081 C262.817,82.019 262.373,83.892 261.485,85.698 C260.599,87.504 259.381,89.019 257.832,90.239 C256.725,91.133 255.507,91.812 254.18,92.278 C252.851,92.744 251.494,92.977 250.11,92.977 L240.217,92.977 L240.217,92.977 Z M246.92,87.369 L248.449,87.369 C249.82,87.369 250.979,87.158 251.923,86.736 C252.867,86.314 253.679,85.65 254.358,84.744 C255.353,83.41 255.85,81.855 255.85,80.081 C255.85,78.318 255.353,76.771 254.358,75.436 C253.666,74.53 252.854,73.866 251.923,73.444 C250.991,73.022 249.833,72.811 248.449,72.811 L246.92,72.811 L246.92,87.369 L246.92,87.369 Z M275.72,67.204 L275.72,81.157 C275.72,82.29 275.739,83.127 275.776,83.668 C275.84,84.587 276.142,85.412 276.683,86.142 C277.073,86.658 277.57,87.058 278.175,87.341 C278.778,87.624 279.445,87.766 280.176,87.766 C280.932,87.766 281.64,87.614 282.3,87.312 C282.961,87.01 283.486,86.589 283.877,86.047 C284.254,85.531 284.503,84.959 284.622,84.329 C284.742,83.7 284.802,82.643 284.802,81.157 L284.802,67.204 L291.505,67.204 L291.505,82.063 C291.505,83.637 291.379,84.959 291.127,86.028 C290.736,87.74 289.805,89.289 288.332,90.673 C286.256,92.649 283.461,93.638 279.949,93.638 C278.3,93.638 276.727,93.366 275.229,92.825 C273.731,92.284 272.522,91.548 271.605,90.616 C270.66,89.673 269.992,88.556 269.603,87.265 C269.212,85.975 269.018,84.241 269.018,82.063 L269.018,67.204 L275.72,67.204 M317.398,75.983 C316.768,75.216 316.126,74.637 315.472,74.247 C314.275,73.529 312.992,73.171 311.62,73.171 C309.883,73.171 308.372,73.693 307.089,74.737 C305.465,76.06 304.653,77.872 304.653,80.176 C304.653,82.467 305.465,84.272 307.089,85.594 C308.372,86.639 309.883,87.161 311.62,87.161 C312.992,87.161 314.275,86.803 315.472,86.085 C316.113,85.695 316.756,85.116 317.398,84.348 L317.398,92.372 C316.189,92.851 315.129,93.187 314.216,93.383 C313.304,93.577 312.338,93.675 311.318,93.675 C309.77,93.675 308.233,93.404 306.711,92.863 C305.188,92.322 303.815,91.555 302.595,90.56 C301.022,89.289 299.81,87.753 298.96,85.953 C298.11,84.153 297.686,82.227 297.686,80.176 C297.686,78.111 298.11,76.179 298.96,74.379 C299.81,72.579 301.022,71.044 302.595,69.772 C303.815,68.777 305.191,68.01 306.721,67.469 C308.25,66.928 309.801,66.656 311.375,66.656 C312.356,66.656 313.307,66.758 314.226,66.959 C315.145,67.16 316.201,67.494 317.398,67.959 L317.398,75.983 M333.303,72.811 L333.303,92.977 L326.6,92.977 L326.6,72.811 L321.144,72.811 L321.144,67.204 L338.854,67.204 L338.854,72.811 L333.303,72.811 M343.732,67.204 L350.434,67.204 L350.434,92.976 L343.732,92.976 L343.732,67.204 Z M370.89,66.43 C373.054,66.43 375.077,66.823 376.959,67.61 C378.841,68.396 380.411,69.508 381.67,70.942 C382.753,72.164 383.606,73.602 384.229,75.257 C384.852,76.912 385.163,78.552 385.163,80.176 C385.163,81.787 384.852,83.42 384.229,85.075 C383.606,86.73 382.753,88.168 381.67,89.39 C380.411,90.824 378.841,91.935 376.959,92.722 C375.077,93.508 373.054,93.901 370.89,93.901 C368.736,93.901 366.717,93.505 364.828,92.712 C362.94,91.919 361.373,90.811 360.127,89.39 C359.044,88.168 358.191,86.73 357.568,85.075 C356.945,83.42 356.634,81.787 356.634,80.176 C356.634,78.564 356.952,76.918 357.588,75.238 C358.223,73.558 359.064,72.126 360.108,70.942 C361.38,69.508 362.959,68.396 364.848,67.61 C366.735,66.823 368.749,66.43 370.89,66.43 L370.89,66.43 Z M370.89,72.944 C369.807,72.944 368.787,73.164 367.83,73.604 C366.874,74.046 366.043,74.675 365.338,75.493 C364.784,76.147 364.356,76.881 364.055,77.692 C363.752,78.504 363.602,79.332 363.602,80.176 C363.602,81.006 363.752,81.827 364.055,82.64 C364.356,83.451 364.784,84.185 365.338,84.839 C366.03,85.657 366.858,86.286 367.821,86.727 C368.784,87.168 369.807,87.388 370.89,87.388 C371.972,87.388 372.994,87.168 373.957,86.727 C374.92,86.286 375.754,85.663 376.459,84.857 C377.617,83.498 378.196,81.937 378.196,80.176 C378.196,79.307 378.045,78.464 377.743,77.645 C377.44,76.827 377.013,76.103 376.459,75.474 C375.754,74.669 374.917,74.046 373.948,73.604 C372.979,73.164 371.959,72.944 370.89,72.944 L370.89,72.944 Z M391.345,92.977 L391.345,67.204 L398.047,67.204 L410.376,82.97 L410.376,67.204 L417.079,67.204 L417.079,92.977 L410.376,92.977 L398.047,77.192 L398.047,92.977 L391.345,92.977 M441.235,68.677 L438.555,73.888 C437.095,72.755 435.622,72.189 434.137,72.189 C433.192,72.189 432.456,72.447 431.928,72.964 C431.475,73.405 431.248,73.884 431.248,74.401 C431.248,75.082 431.669,75.668 432.513,76.159 C432.789,76.323 433.079,76.455 433.381,76.557 C433.684,76.657 434.526,76.916 435.911,77.332 C437.208,77.71 438.236,78.122 438.998,78.569 C439.76,79.017 440.417,79.587 440.972,80.279 C441.425,80.847 441.755,81.463 441.963,82.131 C442.17,82.799 442.274,83.573 442.274,84.455 C442.274,87.352 441.475,89.544 439.876,91.03 C438.97,91.874 437.853,92.526 436.525,92.985 C435.196,93.445 433.765,93.675 432.23,93.675 C430.492,93.675 428.749,93.348 427,92.693 C425.627,92.19 424.381,91.542 423.261,90.749 L426.131,85.349 C428.145,87.161 430.115,88.067 432.041,88.067 C433.249,88.067 434.117,87.759 434.647,87.141 C435.087,86.649 435.307,86.113 435.307,85.533 C435.307,84.777 434.917,84.146 434.137,83.643 C433.658,83.327 432.701,82.962 431.267,82.547 C429.819,82.131 428.752,81.775 428.066,81.479 C427.38,81.184 426.805,80.84 426.339,80.449 C424.967,79.316 424.28,77.603 424.28,75.31 C424.28,72.917 424.991,70.934 426.414,69.358 C428.076,67.507 430.291,66.581 433.061,66.581 C434.432,66.581 435.813,66.761 437.205,67.119 C438.596,67.478 439.939,67.997 441.235,68.677" id="productions" fill="#36A0CE"></path>
                    <path d="M156.152,-0.21 L163.887,-0.21 L176.039,33.644 L176.197,33.644 L176.197,-0.21 L184.246,-0.21 L184.246,55.977 L176.67,55.977 L164.359,22.201 L164.202,22.201 L164.202,55.977 L156.152,55.977 L156.152,-0.21 M193.715,-0.21 L201.764,-0.21 L201.764,55.977 L193.715,55.977 L193.715,-0.21 Z M211.076,13.047 C211.076,10.786 211.471,8.786 212.26,7.05 C213.049,5.313 214.087,3.881 215.377,2.749 C216.665,1.618 218.111,0.764 219.717,0.185 C221.32,-0.395 222.939,-0.684 224.57,-0.684 C226.2,-0.684 227.818,-0.395 229.424,0.185 C231.027,0.764 232.474,1.618 233.764,2.749 C235.053,3.881 236.092,5.313 236.881,7.05 C237.67,8.786 238.065,10.786 238.065,13.047 L238.065,15.888 L230.016,15.888 L230.016,13.047 C230.016,11.102 229.475,9.667 228.397,8.746 C227.318,7.826 226.042,7.365 224.57,7.365 C223.097,7.365 221.82,7.826 220.742,8.746 C219.664,9.667 219.125,11.102 219.125,13.047 L219.125,42.719 C219.125,44.666 219.664,46.1 220.742,47.02 C221.82,47.94 223.097,48.4 224.57,48.4 C226.042,48.4 227.318,47.94 228.397,47.02 C229.475,46.1 230.016,44.666 230.016,42.719 L230.016,32.144 L223.623,32.144 L223.623,25.042 L238.065,25.042 L238.065,42.719 C238.065,45.034 237.67,47.047 236.881,48.756 C236.092,50.466 235.053,51.887 233.764,53.018 C232.474,54.149 231.027,55.004 229.424,55.582 C227.818,56.16 226.2,56.45 224.57,56.45 C222.939,56.45 221.32,56.16 219.717,55.582 C218.111,55.004 216.665,54.149 215.377,53.018 C214.087,51.887 213.049,50.466 212.26,48.756 C211.471,47.047 211.076,45.034 211.076,42.719 L211.076,13.047 M247.139,-0.21 L255.187,-0.21 L255.187,23.858 L265.132,23.858 L265.132,-0.21 L273.181,-0.21 L273.181,55.977 L265.132,55.977 L265.132,30.961 L255.187,30.961 L255.187,55.977 L247.139,55.977 L247.139,-0.21 M288.017,7.365 L278.705,7.365 L278.705,-0.21 L305.378,-0.21 L305.378,7.365 L296.065,7.365 L296.065,55.977 L288.017,55.977 L288.017,7.365 M346.281,55.977 L338.705,55.977 L332.55,19.519 L332.392,19.519 L326.315,55.977 L318.74,55.977 L310.375,-0.21 L318.898,-0.21 L322.922,35.459 L323.08,35.459 L329.394,-0.21 L335.549,-0.21 L342.099,36.327 L342.256,36.327 L346.123,-0.21 L354.646,-0.21 L346.281,55.977 M361.904,-0.21 L369.954,-0.21 L369.954,55.977 L361.904,55.977 L361.904,-0.21 Z M379.423,-0.21 L387.156,-0.21 L399.309,33.644 L399.467,33.644 L399.467,-0.21 L407.516,-0.21 L407.516,55.977 L399.94,55.977 L387.63,22.201 L387.472,22.201 L387.472,55.977 L379.423,55.977 L379.423,-0.21 M416.749,-0.21 L428.665,-0.21 C433.242,-0.21 436.74,1.065 439.16,3.617 C441.58,6.169 442.791,9.732 442.791,14.31 L442.791,40.588 C442.791,45.85 441.515,49.73 438.963,52.228 C436.411,54.728 432.741,55.977 427.955,55.977 L416.749,55.977 L416.749,-0.21 L416.749,-0.21 Z M424.798,48.4 L428.507,48.4 C430.769,48.4 432.374,47.836 433.321,46.704 C434.268,45.573 434.741,43.798 434.741,41.377 L434.741,14.31 C434.741,12.101 434.294,10.392 433.399,9.181 C432.505,7.971 430.874,7.365 428.507,7.365 L424.798,7.365 L424.798,48.4 L424.798,48.4 Z" id="nightwind" fill="#232831"></path>
                    <path d="M100.949,65.697 L30.014,65.697 L30.014,70.234 L90.945,70.234 L89.717,73.335 C89.164,74.724 88.859,76.214 88.859,77.784 C88.867,84.453 94.271,89.861 100.949,89.871 C107.168,89.861 112.228,85.139 112.9,79.093 C107.92,76.647 104.342,71.801 103.701,66.046 C102.813,65.834 101.9,65.697 100.949,65.697 Z M120.205,52.098 L0.082,52.098 L0.082,56.636 L110.201,56.636 L108.977,59.739 C108.424,61.13 108.119,62.614 108.114,64.188 C108.119,65.87 108.468,67.467 109.088,68.921 C109.344,69.514 109.658,70.071 110.008,70.605 C110.117,70.783 110.224,70.96 110.344,71.133 C110.635,71.53 110.954,71.911 111.289,72.278 C113.501,74.711 116.658,76.268 120.205,76.271 L120.205,76.275 C126.882,76.263 132.281,70.858 132.295,64.188 C132.281,57.512 126.882,52.111 120.205,52.098 Z M13.677,21.879 L13.677,26.421 L86.104,26.421 C86.25,24.829 86.621,23.311 87.178,21.883 L13.677,21.879 Z M102.648,15.839 C95.97,15.852 90.566,21.256 90.557,27.93 C90.557,29.503 90.866,30.989 91.414,32.374 L92.648,35.478 L6.791,35.474 L6.791,40.017 L102.648,40.017 C109.317,40.007 114.717,34.602 114.734,27.93 C114.717,21.256 109.317,15.852 102.648,15.839 Z M120.21,2.243 C114.223,2.257 109.291,6.616 108.322,12.327 C114.244,14.484 118.596,19.902 119.184,26.421 L120.21,26.421 C126.882,26.408 132.281,21.007 132.295,14.331 C132.281,7.66 126.882,2.261 120.21,2.243 Z" id="wind" fill="#E2E2E2"></path>
                </g>
            </g>
        </g>
    </g>
</svg>